<svg xmlns="http://www.w3.org/2000/svg" xmlns:xlink="http://www.w3.org/1999/xlink" viewBox="0 0 280 250" preserveAspectRatio="xMidYMid" style="display: block; shape-rendering: auto; background: rgb(255, 255, 255);" width="280" height="250"><style type="text/css">
  .ld-text text {
    text-anchor: middle;
    dominant-baseline: middle;
    font-size: 43px;
    opacity: 0;
    user-select: none;
    pointer-events: none;
  }
</style>
<g style="transform-origin:140px 125px;transform:scale(1)" class="ld-text">
<g transform="translate(140,125)">
  <g transform="scale(0.5375) translate(0,0)"><g class="path" style="opacity: 1; transform-origin: -142.8px -3.78px; transform: matrix3d(0.91, 0, 0, 0, 0, 0.91, 0, 0, 0, 0, 0.91, 0, 0, 0, 0, 1); animation: 1s linear -0.33s infinite normal forwards running animate-tymgguw1n2; transform-box: view-box;"><path d="M18.24-3.48L18.24-3.48Q14.88 0.20 14.88 5.84Q14.88 11.48 17.76 12.60L17.76 12.60Q18.48 12.84 18.48 13.64L18.48 13.64Q18.48 16.04 16.88 17.68Q15.28 19.32 12.96 19.64L12.96 19.64Q12.24 19.64 12.24 20.20L12.24 20.20Q12.16 21.08 12.16 22.72Q12.16 24.36 12.32 26.32Q12.48 28.28 13.08 30.96Q13.68 33.64 14.68 35.60Q15.68 37.56 17.56 38.96Q19.44 40.36 21.92 40.36Q24.40 40.36 26.48 38.92L26.48 38.92Q24.64 34.76 22.64 33L22.64 33L22 32.44Q21.76 32.12 21.76 31.80L21.76 31.80Q21.76 30.92 23.36 30.92L23.36 30.92Q26.64 30.92 30.08 34.36L30.08 34.36Q33.12 28.12 33.12 18.12L33.12 18.12Q33.12 1.96 27.76-3.32L27.76-3.32Q25.44-5.56 22.80-5.56Q20.16-5.56 18.24-3.48 zM8.64 1.56L8.64 1.56L8.96 1.08Q9.76-2.60 11.56-5.28Q13.36-7.96 15.16-9.28Q16.96-10.60 19.20-11.32L19.20-11.32Q22.16-12.28 24.40-12.28L24.40-12.28Q29.76-12.28 33.64-9.80Q37.52-7.32 39.52-3.08L39.52-3.08Q43.20 5 43.20 15.24L43.20 15.24Q43.20 32.44 35.04 40.60L35.04 40.60Q38.80 44.76 42.40 44.76L42.40 44.76Q43.44 44.76 43.44 45.48L43.44 45.48Q43.44 46.76 40.48 48.24Q37.52 49.72 34.16 49.72L34.16 49.72L31.60 49.48Q30.56 49.32 29.92 48.72Q29.28 48.12 29.12 47.08L29.12 47.08L28.56 44.84Q24.80 46.36 20.88 46.36L20.88 46.36Q10.88 46.36 6.16 39.52Q1.44 32.68 1.44 22.20L1.44 22.20Q1.44 16.12 2.48 11.04Q3.52 5.96 4.64 3.88L4.64 3.88L5.68 1.80Q6 1.08 6.72 1.08Q7.44 1.08 7.80 1.20Q8.16 1.32 8.36 1.44Q8.56 1.56 8.64 1.56" style="fill: rgb(255, 0, 0);" transform="translate(-165.240,-22.500)"></path></g><g class="path" style="opacity: 1; transform-origin: -103.72px 4.94px; transform: matrix3d(0.91, 0, 0, 0, 0, 0.91, 0, 0, 0, 0, 0.91, 0, 0, 0, 0, 1); animation: 1s linear -0.11s infinite normal forwards running animate-tymgguw1n2; transform-box: view-box;"><path d="M75.68 9.40L75.68 9.40Q74.24 18.04 74.24 31.40L74.24 31.40Q74.24 41.24 75.04 44.36L75.04 44.36L75.36 45.40Q75.36 46.44 73.60 46.44L73.60 46.44Q67.44 46.44 66.56 43L66.56 43Q66.48 42.60 66.20 42.60Q65.92 42.60 65.68 42.92L65.68 42.92Q63.20 46.20 58 46.20L58 46.20Q55.12 46.20 52 44.76L52 44.76Q50.08 43.88 48.88 41.68Q47.68 39.48 47.68 36.28L47.68 36.28L48.88 18.76Q48.88 13.24 47.76 10.92L47.76 10.92Q47.36 10.04 47.36 9.80L47.36 9.80Q47.36 9.32 47.76 9.16L47.76 9.16Q49.04 8.76 51.04 8.76L51.04 8.76Q58.80 8.76 58.80 15.16L58.80 15.16Q58.80 17.16 57.16 24.28Q55.52 31.40 55.52 34.40Q55.52 37.40 56.84 39Q58.16 40.60 60.52 40.60Q62.88 40.60 64.24 38.92Q65.60 37.24 65.84 35.56L65.84 35.56L66.08 33.88Q66.40 31.08 66.40 24.04Q66.40 17 65.96 15.12Q65.52 13.24 65.52 12.76L65.52 12.76Q65.52 10.76 68.72 9.60Q71.92 8.44 74.48 8.44L74.48 8.44Q75.68 8.44 75.68 9.40" style="fill: rgb(255, 0, 0);" transform="translate(-165.240,-22.500)"></path></g><g class="path" style="opacity: 1; transform-origin: -71.88px 4.94px; transform: matrix3d(0.91, 0, 0, 0, 0, 0.91, 0, 0, 0, 0, 0.91, 0, 0, 0, 0, 1); animation: 1s linear -0.165s infinite normal forwards running animate-tymgguw1n2; transform-box: view-box;"><path d="M106.24 21L106.24 21L106.08 31.24Q106.08 41.88 108.40 44.04L108.40 44.04Q108.72 44.36 108.72 44.76L108.72 44.76Q108.72 45.96 103.56 45.96Q98.40 45.96 98.08 42.92L98.08 42.92Q98 42.20 98 39.96L98 39.96L98.32 27.16Q98.32 26.60 97.68 26.60L97.68 26.60Q93.84 26.60 90.48 28.76Q87.12 30.92 87.12 34.28L87.12 34.28Q87.12 36.04 88.08 37.24Q89.04 38.44 90.44 38.44Q91.84 38.44 92.76 37.88Q93.68 37.32 93.84 37.24L93.84 37.24Q95.20 37.40 95.20 40.08Q95.20 42.76 92.72 44.40Q90.24 46.04 87.52 46.04Q84.80 46.04 82.84 45.08Q80.88 44.12 80 42.92Q79.12 41.72 78.56 40.20L78.56 40.20Q78 38.36 78 37L78 37Q78 31.40 81.52 28.04Q85.04 24.68 90.56 23.24L90.56 23.24Q97.84 21.80 98.16 20.60L98.16 20.60Q98.40 19.72 98.40 17.64L98.40 17.64Q98.40 13.40 94.08 13.40L94.08 13.40Q92.24 13.40 90.80 14.56Q89.36 15.72 89.36 17.48L89.36 17.48L89.84 19.40Q89.68 20.76 86.96 21L86.96 21L86.08 21.08Q83.68 21.08 82.28 19.88Q80.88 18.68 80.88 16.68L80.88 16.68Q80.88 15.40 81.72 13.84Q82.56 12.28 83.84 11.32Q85.12 10.36 87.80 9.60Q90.48 8.84 92.96 8.84Q95.44 8.84 96.80 9Q98.16 9.16 100.52 9.76Q102.88 10.36 104.44 12.04Q106 13.72 106.12 15.60Q106.24 17.48 106.24 21" style="fill: rgb(255, 0, 0);" transform="translate(-165.240,-22.500)"></path></g><g class="path" style="opacity: 1; transform-origin: -49.8px -4.38px; transform: matrix3d(0.91, 0, 0, 0, 0, 0.91, 0, 0, 0, 0, 0.91, 0, 0, 0, 0, 1); animation: 1s linear -0.44s infinite normal forwards running animate-tymgguw1n2; transform-box: view-box;"><path d="M121.12-0.76L121.12-0.76L120.64 28.60Q120.64 42.36 121.52 45.08L121.52 45.08Q121.76 45.56 121.76 46.04L121.76 46.04Q121.76 47 119.44 47Q117.12 47 114.28 45.84Q111.44 44.68 111.44 42.84L111.44 42.84Q113.04 31.64 113.04 12.92L113.04 12.92L112.72 0.68Q112.56-1.56 111.80-3.16Q111.04-4.76 110.32-5.24L110.32-5.24L109.68-5.64Q109.12-5.96 109.12-6.36L109.12-6.36Q109.12-7.48 112.60-9.12Q116.08-10.76 119.36-10.76L119.36-10.76Q120.64-10.76 120.80-9.88L120.80-9.88Q121.12-7.80 121.12-0.76" style="fill: rgb(255, 0, 0);" transform="translate(-165.240,-22.500)"></path></g><g class="path" style="opacity: 1; transform-origin: -31.88px -23.62px; transform: matrix3d(0.91, 0, 0, 0, 0, 0.91, 0, 0, 0, 0, 0.91, 0, 0, 0, 0, 1); animation: 1s linear -0.055s infinite normal forwards running animate-tymgguw1n2; transform-box: view-box;"><path d="M134.80 2.20L134.80 2.20L132.88 2.12Q130.72 2.12 130.08 3.16L130.08 3.16Q129.92 3.40 129.68 3.40L129.68 3.40Q128.64 3.40 128.64-0.16Q128.64-3.72 129.72-4.68Q130.80-5.64 133.48-5.64Q136.16-5.64 137.12-4.72Q138.08-3.80 138.08-1.64Q138.08 0.52 137.36 1.36Q136.64 2.20 134.80 2.20" style="fill: rgb(255, 0, 0);" transform="translate(-165.240,-22.500)"></path></g><g class="path" style="opacity: 1; transform-origin: -32.92px 5.34px; transform: matrix3d(0.91, 0, 0, 0, 0, 0.91, 0, 0, 0, 0, 0.91, 0, 0, 0, 0, 1); animation: 1s linear 0s infinite normal forwards running animate-tymgguw1n2; transform-box: view-box;"><path d="M128.40 42.60L128.40 42.60L129.28 23.96Q129.28 17.32 127.76 14.92L127.76 14.92Q127.28 14.12 126.64 13.72L126.64 13.72Q126.16 13.56 126.16 13.08L126.16 13.08Q126.16 11.64 130.24 10.28Q134.32 8.92 136.20 8.92Q138.08 8.92 138.16 9.88L138.16 9.88Q138.16 11.48 137.72 18.96Q137.28 26.44 137.28 34.68Q137.28 42.92 138.24 44.92L138.24 44.92Q138.48 45.32 138.48 45.72L138.48 45.72Q138.48 46.76 135.44 46.76Q132.40 46.76 129.20 45.16L129.20 45.16Q128.40 44.76 128.40 42.60" style="fill: rgb(255, 0, 0);" transform="translate(-165.240,-22.500)"></path></g><g class="path" style="opacity: 1; transform-origin: -14.12px 0.14px; transform: matrix3d(0.91, 0, 0, 0, 0, 0.91, 0, 0, 0, 0, 0.91, 0, 0, 0, 0, 1); animation: 1s linear -0.385s infinite normal forwards running animate-tymgguw1n2; transform-box: view-box;"><path d="M142.16 13.80L142.16 13.80L142.40 10.60Q142.48 9.88 143.52 9.88L143.52 9.88L146.32 9.88L146 3.48L146 3.16Q146 1.32 148.80-0.36Q151.60-2.04 153.92-2.04L153.92-2.04Q154.64-2.04 154.64-1.40L154.64-1.40L154.64-1.32Q154.32 0.84 154 9.80L154 9.80Q157.52 9.80 158.48 9.64Q159.44 9.48 159.52 9.48L159.52 9.48Q160.08 9.48 160.08 10.44Q160.08 11.40 159.20 12.88Q158.32 14.36 157.28 14.44L157.28 14.44L153.92 14.44Q153.84 17.16 153.84 23.60Q153.84 30.04 153.96 34.20Q154.08 38.36 154.24 40.48Q154.40 42.60 154.60 43.88Q154.80 45.16 154.92 45.72Q155.04 46.28 155.04 46.44L155.04 46.44Q155.04 47.24 154 47.32L154 47.32Q150.88 47.32 147.80 46.44Q144.72 45.56 144.72 43.40L144.72 43.40Q146.40 29.96 146.40 14.52L146.40 14.52Q144.24 14.52 143.12 14.68L143.12 14.68L143.04 14.68Q142.32 14.68 142.16 13.80" style="fill: rgb(255, 0, 0);" transform="translate(-165.240,-22.500)"></path></g><g class="path" style="opacity: 1; transform-origin: 9.76px 15.7px; transform: matrix3d(0.91, 0, 0, 0, 0, 0.91, 0, 0, 0, 0, 0.91, 0, 0, 0, 0, 1); animation: 1s linear -0.605s infinite normal forwards running animate-tymgguw1n2; transform-box: view-box;"><path d="M176.24 67.16L176.24 67.16Q176.24 68.12 175.28 68.12L175.28 68.12L175.20 68.12Q172.56 68.12 169.24 66.28Q165.92 64.44 165.92 62.04Q165.92 59.64 168.96 53.68Q172 47.72 172 45.72L172 45.72Q172 43.56 169.92 37.96L169.92 37.96Q167.28 30.68 165.72 26.12Q164.16 21.56 162.36 18.08Q160.56 14.60 159.76 13.96L159.76 13.96L158.96 13.40Q158.08 12.92 158.08 12.36L158.08 12.36Q158.08 11.24 161.56 10.08Q165.04 8.92 167.68 8.92L167.68 8.92Q168.88 8.92 169.68 10.84L169.68 10.84Q171.12 14.60 172.80 21.24L172.80 21.24Q176.88 34.84 177.92 34.84L177.92 34.84Q178.64 34.84 180.84 29.24Q183.04 23.64 183.04 20.20L183.04 20.20Q183.04 14.20 179.52 13.16L179.52 13.16Q178.72 13 178.72 12.36L178.72 12.36Q178.72 10.92 182.48 9.60Q186.24 8.28 189.28 8.28L189.28 8.28Q191.92 8.28 191.92 11.72L191.92 11.72Q191.92 14.36 190.80 17.88Q189.68 21.40 188.72 23.44Q187.76 25.48 183.96 32.88Q180.16 40.28 177.68 45.88L177.68 45.88Q174.96 52.60 174.96 59.56L174.96 59.56Q174.96 63.24 175.60 65.08Q176.24 66.92 176.24 67.16" style="fill: rgb(255, 0, 0);" transform="translate(-165.240,-22.500)"></path></g><g class="path" style="opacity: 1; transform-origin: 57.28px -4.9px; transform: matrix3d(0.91, 0, 0, 0, 0, 0.91, 0, 0, 0, 0, 0.91, 0, 0, 0, 0, 1); animation: 1s linear -0.495s infinite normal forwards running animate-tymgguw1n2; transform-box: view-box;"><path d="M210.96 30.60L210.96 30.60L211.44 16.44L206.08 16.44Q205.44 16.44 205.44 15.96L205.44 15.96Q205.44 14.52 206.80 12.64Q208.16 10.76 209.76 10.76L209.76 10.76L211.44 10.76Q211.28 4.52 211.12 1.80L211.12 1.80Q210.80-3.08 209.52-5.72L209.52-5.72L209.12-6.52Q208.80-6.92 208.80-7.48Q208.80-8.04 209.68-8.44Q210.56-8.84 212.28-9.40Q214-9.96 219.60-10.88Q225.20-11.80 231.80-11.80Q238.40-11.80 239-10.84Q239.60-9.88 239.60-7.84Q239.60-5.80 239.04-5.80L239.04-5.80Q238.96-5.80 238.48-5.88L238.48-5.88Q237.20-6.20 234.56-6.20Q231.92-6.20 228.88-5.72Q225.84-5.24 224.24-4.76L224.24-4.76L222.72-4.20Q222.08-4.04 221.76-3.08L221.76-3.08Q221.12 1.64 221.12 10.76L221.12 10.76L234.08 10.76Q234.80 10.76 234.80 11.24L234.80 11.24Q234.80 12.68 233.52 14.60Q232.24 16.52 230.64 16.52L230.64 16.52L221.12 16.44L221.68 40.44Q221.68 42.20 221.12 43L221.12 43Q219.60 45 215.96 46Q212.32 47 209.92 47L209.92 47Q209.28 47 209.28 46.20L209.28 46.20Q209.28 45.80 209.36 45.56L209.36 45.56Q210.32 44.20 210.96 30.60" style="fill: rgb(255, 0, 0);" transform="translate(-165.240,-22.500)"></path></g><g class="path" style="opacity: 1; transform-origin: 84.72px 5.22px; transform: matrix3d(0.91, 0, 0, 0, 0, 0.91, 0, 0, 0, 0, 0.91, 0, 0, 0, 0, 1); animation: 1s linear -0.22s infinite normal forwards running animate-tymgguw1n2; transform-box: view-box;"><path d="M243.20 14.84L243.20 14.84Q241.12 14.92 240.20 14.96Q239.28 15 239.28 14.52Q239.28 14.04 239.76 13.56L239.76 13.56Q244.88 8.84 257.04 8.84L257.04 8.84Q261.20 8.84 263.60 9.56L263.60 9.56L264.40 9.80Q265.36 10.20 265.36 10.68L265.36 10.68Q265.36 11.08 264.80 11.32L264.80 11.32Q262.64 11.96 260.64 13.36Q258.64 14.76 258.64 15.32L258.64 15.32L259.12 15.88Q261.68 17.32 263.08 20.44Q264.48 23.56 264.64 25.96L264.64 25.96L264.80 28.44Q264.80 36.36 260.40 41.48Q256 46.60 248.40 46.60L248.40 46.60Q244.56 46.60 241.76 45.24Q238.96 43.88 237.64 42.16Q236.32 40.44 235.52 38.28L235.52 38.28Q234.56 35.32 234.56 32.16Q234.56 29 235.64 25.80Q236.72 22.60 238.12 21.08Q239.52 19.56 241.28 18.60L241.28 18.60Q243.52 17.40 244.88 17.40Q246.24 17.40 246.24 17.96L246.24 17.96L245.76 18.76Q244 20.84 243.24 24.20Q242.48 27.56 242.48 30.16Q242.48 32.76 243.12 35.32Q243.76 37.88 244.56 39.12Q245.36 40.36 246.40 41L246.40 41Q247.92 41.96 249.60 41.96Q251.28 41.96 252.88 40.64Q254.48 39.32 255.20 37.16L255.20 37.16Q256.64 33.16 256.64 28.92L256.64 28.92Q256.64 22.20 253.24 18.52Q249.84 14.84 243.20 14.84" style="fill: rgb(255, 0, 0);" transform="translate(-165.240,-22.500)"></path></g><g class="path" style="opacity: 1; transform-origin: 118.32px 5.22px; transform: matrix3d(0.91, 0, 0, 0, 0, 0.91, 0, 0, 0, 0, 0.91, 0, 0, 0, 0, 1); animation: 1s linear -0.55s infinite normal forwards running animate-tymgguw1n2; transform-box: view-box;"><path d="M276.80 14.84L276.80 14.84Q274.72 14.92 273.80 14.96Q272.88 15 272.88 14.52Q272.88 14.04 273.36 13.56L273.36 13.56Q278.48 8.84 290.64 8.84L290.64 8.84Q294.80 8.84 297.20 9.56L297.20 9.56L298 9.80Q298.96 10.20 298.96 10.68L298.96 10.68Q298.96 11.08 298.40 11.32L298.40 11.32Q296.24 11.96 294.24 13.36Q292.24 14.76 292.24 15.32L292.24 15.32L292.72 15.88Q295.28 17.32 296.68 20.44Q298.08 23.56 298.24 25.96L298.24 25.96L298.40 28.44Q298.40 36.36 294 41.48Q289.60 46.60 282 46.60L282 46.60Q278.16 46.60 275.36 45.24Q272.56 43.88 271.24 42.16Q269.92 40.44 269.12 38.28L269.12 38.28Q268.16 35.32 268.16 32.16Q268.16 29 269.24 25.80Q270.32 22.60 271.72 21.08Q273.12 19.56 274.88 18.60L274.88 18.60Q277.12 17.40 278.48 17.40Q279.84 17.40 279.84 17.96L279.84 17.96L279.36 18.76Q277.60 20.84 276.84 24.20Q276.08 27.56 276.08 30.16Q276.08 32.76 276.72 35.32Q277.36 37.88 278.16 39.12Q278.96 40.36 280 41L280 41Q281.52 41.96 283.20 41.96Q284.88 41.96 286.48 40.64Q288.08 39.32 288.80 37.16L288.80 37.16Q290.24 33.16 290.24 28.92L290.24 28.92Q290.24 22.20 286.84 18.52Q283.44 14.84 276.80 14.84" style="fill: rgb(255, 0, 0);" transform="translate(-165.240,-22.500)"></path></g><g class="path" style="opacity: 1; transform-origin: 151.8px -4.82px; transform: matrix3d(0.91, 0, 0, 0, 0, 0.91, 0, 0, 0, 0, 0.91, 0, 0, 0, 0, 1); animation: 1s linear -0.275s infinite normal forwards running animate-tymgguw1n2; transform-box: view-box;"><path d="M318.56 9.08L318.56 9.08Q320 9.08 321.16 9.44Q322.32 9.80 322.40 9.80L322.40 9.80L322.88 9.40L322.56 0.68Q322.40-1.56 321.60-3.16Q320.80-4.76 320.16-5.24L320.16-5.24L319.44-5.64Q318.96-5.96 318.96-6.36L318.96-6.36Q318.96-7.56 322.68-9.16Q326.40-10.76 328.48-10.76Q330.56-10.76 330.72-9.88L330.72-9.88Q331.12-7.16 331.12 0.48Q331.12 8.12 330.76 15.48Q330.40 22.84 330.40 32.16Q330.40 41.48 331.60 43.88L331.60 43.88Q331.92 44.44 331.92 44.92L331.92 44.92Q331.92 46.12 328.48 46.12L328.48 46.12Q321.92 46.12 321.92 43L321.92 43Q321.76 41.72 321.76 39.04Q321.76 36.36 322.28 29.04Q322.80 21.72 322.80 17.76Q322.80 13.80 318.84 13.80Q314.88 13.80 312.80 18.44Q310.72 23.08 310.72 27.72L310.72 27.72Q310.72 37.56 315.68 37.56L315.68 37.56Q316.40 37.56 317.08 37.28Q317.76 37 317.92 37L317.92 37Q318.56 37 318.92 37.80Q319.28 38.60 319.28 39.40L319.28 39.40Q319.28 42.12 317.12 44Q314.96 45.88 311.84 45.88L311.84 45.88Q307.04 45.88 304.60 41.68Q302.16 37.48 302.16 31.24L302.16 31.24Q302.16 23.32 305.92 16.52L305.92 16.52Q307.84 13.16 311.12 11.12Q314.40 9.08 318.56 9.08" style="fill: rgb(255, 0, 0);" transform="translate(-165.240,-22.500)"></path></g></g><text dy="0.35em" fill="#ff0000" font-family="Aladin" font-size="43">Quality Food</text>
</g>
</g><style type="text/css">@keyframes animate-tymgguw1n2 { 0.00% {transform: translate(0.00px,0.00px) rotate(0.00deg) scale(0.91, 0.91) skew(0deg, 0.00deg) ;opacity: 1.00;}4.00% {transform: translate(0.00px,0.00px) rotate(0.00deg) scale(0.91, 0.91) ;}8.00% {animation-timing-function: cubic-bezier(0.69,0.60,0.35,0.27);transform: translate(0.00px,0.00px) rotate(0.00deg) scale(0.91, 0.91) ;}14.00% {transform: translate(0.00px,0.00px) rotate(0.00deg) scale(0.93, 0.93) ;}18.00% {transform: translate(0.00px,0.00px) rotate(0.00deg) scale(0.94, 0.94) ;}22.00% {animation-timing-function: cubic-bezier(0.67,0.66,0.34,0.33);transform: translate(0.00px,0.00px) rotate(0.00deg) scale(0.96, 0.96) ;}26.00% {transform: translate(0.00px,0.00px) rotate(0.00deg) scale(0.97, 0.97) ;}30.00% {transform: translate(0.00px,0.00px) rotate(0.00deg) scale(0.99, 0.99) ;}34.00% {animation-timing-function: cubic-bezier(0.65,0.71,0.32,0.38);transform: translate(0.00px,0.00px) rotate(0.00deg) scale(1.01, 1.01) ;}40.00% {animation-timing-function: cubic-bezier(0.64,0.74,0.31,0.41);transform: translate(0.00px,0.00px) rotate(0.00deg) scale(1.02, 1.02) ;}46.00% {animation-timing-function: cubic-bezier(0.60,0.91,0.23,0.63);transform: translate(0.00px,0.00px) rotate(0.00deg) scale(1.03, 1.03) ;}50.00% {transform: translate(0.00px,0.00px) rotate(0.00deg) scale(1.03, 1.03) ;}54.00% {transform: translate(0.00px,0.00px) rotate(0.00deg) scale(1.03, 1.03) ;}58.00% {animation-timing-function: cubic-bezier(0.69,0.60,0.35,0.27);transform: translate(0.00px,0.00px) rotate(0.00deg) scale(1.03, 1.03) ;}64.00% {transform: translate(0.00px,0.00px) rotate(0.00deg) scale(1.01, 1.01) ;}68.00% {transform: translate(0.00px,0.00px) rotate(0.00deg) scale(1.00, 1.00) ;}72.00% {animation-timing-function: cubic-bezier(0.67,0.66,0.34,0.33);transform: translate(0.00px,0.00px) rotate(0.00deg) scale(0.98, 0.98) ;}76.00% {animation-timing-function: cubic-bezier(0.66,0.68,0.33,0.35);transform: translate(0.00px,0.00px) rotate(0.00deg) scale(0.97, 0.97) ;}82.00% {animation-timing-function: cubic-bezier(0.65,0.71,0.32,0.38);transform: translate(0.00px,0.00px) rotate(0.00deg) scale(0.94, 0.94) ;}88.00% {animation-timing-function: cubic-bezier(0.65,0.73,0.31,0.40);transform: translate(0.00px,0.00px) rotate(0.00deg) scale(0.92, 0.92) ;}94.00% {animation-timing-function: cubic-bezier(0.63,0.80,0.28,0.48);transform: translate(0.00px,0.00px) rotate(0.00deg) scale(0.91, 0.91) ;}100.00% {animation-timing-function: cubic-bezier(0.63,0.80,0.28,0.48);transform: translate(0.00px,0.00px) rotate(0.00deg) scale(0.91, 0.91) ;} }</style><!-- [ldio] generated by https://loading.io --></svg>